<?xml version="1.0" standalone="no"?>
<!DOCTYPE svg PUBLIC "-//W3C//DTD SVG 20010904//EN"
 "http://www.w3.org/TR/2001/REC-SVG-20010904/DTD/svg10.dtd">
<svg version="1.0" xmlns="http://www.w3.org/2000/svg"
 width="1280.000000pt" height="699.000000pt" viewBox="0 0 1280.000000 699.000000"
 preserveAspectRatio="xMidYMid meet">
<metadata>
Created by potrace 1.15, written by Peter Selinger 2001-2017
</metadata>
<g transform="translate(0.000000,699.000000) scale(0.100000,-0.100000)"
fill="#000000" stroke="none">
<path d="M4730 5923 c0 -17 -319 -37 -488 -30 -89 4 -163 2 -172 -3 -18 -11
-17 -12 57 -40 67 -24 67 -23 88 -127 10 -47 48 -44 74 5 l13 24 23 -22 c16
-15 30 -20 47 -15 21 5 21 5 6 -8 -16 -13 -10 -20 68 -87 85 -72 86 -73 63
-86 -13 -7 -20 -13 -16 -14 5 0 17 5 28 10 16 9 34 -2 121 -77 269 -231 247
-215 289 -208 50 9 50 -7 2 -29 -21 -10 -51 -28 -67 -40 l-28 -23 96 -83 c92
-78 110 -100 84 -100 -6 0 -3 -9 7 -20 20 -23 21 -22 -54 -102 l-34 -37 24 -6
c20 -5 146 25 210 50 12 4 55 -26 145 -102 268 -224 330 -277 368 -311 l38
-34 -88 -91 c-49 -50 -80 -84 -69 -75 12 9 32 14 50 11 24 -3 117 22 211 58 6
2 62 -38 123 -89 98 -81 116 -93 139 -87 26 6 26 6 8 -14 -18 -19 -17 -22 16
-91 26 -53 32 -74 24 -84 -6 -8 -42 -24 -81 -36 -38 -13 -177 -65 -307 -115
-161 -63 -245 -91 -263 -87 -17 3 -25 0 -23 -7 2 -7 -19 -21 -47 -31 -304
-113 -916 -339 -1090 -402 -121 -44 -367 -135 -546 -204 -179 -68 -331 -124
-337 -124 -7 0 -67 -23 -134 -51 -202 -84 -169 -95 -1160 401 -894 449 -827
423 -969 376 -41 -14 -128 -45 -194 -70 -66 -25 -128 -46 -137 -46 -9 0 -19
-4 -23 -9 -3 -5 -19 -12 -36 -16 -20 -5 -29 -12 -25 -21 3 -7 -3 -18 -12 -24
-15 -9 -14 -10 5 -5 23 6 7 28 238 -325 55 -85 115 -177 133 -205 l31 -50 -62
-12 c-69 -13 -170 -46 -201 -67 -12 -7 -34 -16 -51 -20 -16 -4 -43 -12 -58
-18 l-29 -11 55 -51 c30 -28 197 -181 371 -340 174 -159 316 -293 316 -297 0
-4 -35 -26 -77 -49 -104 -57 -234 -141 -310 -202 l-63 -50 3 -81 c3 -77 5 -82
28 -87 13 -4 42 -2 64 2 22 5 51 7 64 5 25 -5 321 7 467 19 l81 6 12 -248 c7
-137 14 -267 17 -288 3 -25 0 -43 -8 -48 -10 -6 -10 -8 0 -8 6 0 12 -9 12 -20
0 -18 2 -18 43 -4 23 8 51 18 62 23 11 5 40 14 65 21 72 20 172 68 189 93 9
12 64 99 122 192 167 269 238 375 253 375 57 0 863 109 1106 150 884 148 1114
208 1975 515 165 59 311 107 325 107 317 6 655 54 848 122 l43 15 55 -85 c86
-133 85 -120 15 -193 -57 -59 -77 -101 -48 -101 6 0 48 13 91 30 44 16 83 27
88 24 16 -10 8 -36 -22 -74 -35 -44 -37 -54 -10 -47 25 6 25 -2 4 -111 -17
-82 -18 -84 -75 -134 -33 -28 -59 -57 -59 -65 0 -20 22 -25 55 -13 15 6 30 9
32 6 3 -2 -5 -53 -16 -113 -11 -59 -23 -125 -27 -147 -4 -21 -15 -47 -25 -57
-20 -20 -27 -55 -9 -44 22 14 8 -8 -35 -53 -25 -26 -45 -55 -45 -64 0 -15 7
-18 44 -14 25 3 53 9 65 15 11 6 22 11 24 11 2 0 -9 -62 -25 -137 -16 -76 -31
-154 -34 -173 -3 -19 -8 -38 -10 -42 -2 -3 -31 -4 -63 -1 -32 3 -76 2 -98 -2
l-38 -8 70 -32 c70 -32 71 -33 84 -86 8 -30 17 -64 22 -76 13 -34 45 -18 71
36 36 75 111 141 227 201 57 29 122 70 144 92 41 39 77 44 77 11 0 -8 4 -13
10 -11 12 4 301 499 456 781 115 211 119 216 135 196 12 -16 23 -20 40 -16 43
11 261 54 384 76 257 47 446 105 712 217 187 79 313 147 353 189 21 23 22 30
17 97 -11 127 -74 328 -130 414 -16 25 -29 34 -50 34 -31 0 -197 -40 -266 -65
-24 -8 -60 -15 -81 -15 -21 0 -66 -9 -101 -19 -167 -51 -459 -115 -459 -100 0
4 32 74 70 156 l71 148 82 44 c123 67 332 203 422 276 113 91 212 136 610 278
800 286 1415 527 1659 649 56 28 82 36 89 29 6 -6 18 -11 26 -11 12 0 11 3 -3
13 -17 12 -12 17 52 55 79 47 89 49 95 25 3 -13 5 -10 6 7 1 20 17 35 74 69
178 111 248 162 333 244 136 131 149 152 150 254 0 74 -2 83 -18 83 -10 0 -18
4 -18 9 0 19 -98 70 -181 95 -99 30 -201 49 -378 71 -98 12 -141 23 -210 52
l-86 37 -205 0 c-171 1 -226 -3 -330 -22 -131 -24 -281 -60 -388 -92 -34 -11
-69 -17 -78 -13 -9 3 -19 1 -23 -4 -6 -11 -890 -336 -1424 -524 -229 -81 -282
-96 -297 -87 -24 15 -186 -11 -290 -47 -41 -14 -100 -30 -130 -35 -30 -5 -187
-46 -348 -89 -328 -90 -362 -98 -362 -83 0 5 -206 115 -457 245 -524 268
-1070 558 -1518 806 -338 187 -475 257 -518 266 -15 3 -35 14 -44 25 -12 14
-19 16 -24 8 -6 -9 -13 -7 -28 6 -12 11 -21 15 -21 9z m195 -130 c33 -22 10
-15 -39 13 -25 14 -49 31 -53 37 -6 10 40 -15 92 -50z m280 -150 c11 -7 16
-13 12 -13 -14 0 -196 101 -203 112 -6 10 148 -70 191 -99z m198 -112 c54 -30
95 -56 93 -58 -4 -4 -195 102 -206 114 -10 11 18 -3 113 -56z m290 -154 c59
-32 107 -60 107 -63 0 -7 -211 104 -225 118 -15 16 0 9 118 -55z m393 -215
c-5 -4 -166 76 -166 83 0 3 38 -14 85 -37 46 -23 83 -44 81 -46z m274 -147 c0
-3 -18 4 -40 15 -22 11 -40 23 -40 25 0 3 18 -4 40 -15 22 -11 40 -23 40 -25z
m270 -141 c0 -2 -9 0 -20 6 -11 6 -20 13 -20 16 0 2 9 0 20 -6 11 -6 20 -13
20 -16z m1640 -1924 c0 -5 -4 -10 -10 -10 -5 0 -10 5 -10 10 0 6 5 10 10 10 6
0 10 -4 10 -10z"/>
</g>
</svg>
